# xmcd
#
# Track frame offsets:
# 150
# 10714
# 20861
# 34895
# 48169
# 51385
# 63252
# 70688
# 83607
# 90759
# 93181
# 99837
#
# Disc length: 1446 seconds
#
# Revision: 0
# Processed by: cddbd v1.4PL0 Copyright (c) Steve Scherf et al.
# Submitted via: Audion 3.0.2 (http://www.panic.com/audion/)
#
DISCID=8205a40c
DTITLE=Bobby Birdman - Exhausted, The Cost of
DYEAR=1900
DGENRE=
TTITLE0=Love Be Long
TTITLE1=Better Than Worse
TTITLE2=Fight Back the Light
TTITLE3=Blue Skies
TTITLE4=break
TTITLE5=I Pulled It Over My Eyes
TTITLE6=break
TTITLE7=Switch Hitter
TTITLE8=Sleep Deprivation
TTITLE9=break
TTITLE10=Perfect For Light
TTITLE11=break
EXTD=
EXTT0=
EXTT1=
EXTT2=
EXTT3=
EXTT4=
EXTT5=
EXTT6=
EXTT7=
EXTT8=
EXTT9=
EXTT10=
EXTT11=
PLAYORDER=
